<?xml version="1.0" standalone="no"?>
<!DOCTYPE svg PUBLIC "-//W3C//DTD SVG 20010904//EN"
 "http://www.w3.org/TR/2001/REC-SVG-20010904/DTD/svg10.dtd">
<svg version="1.0" xmlns="http://www.w3.org/2000/svg"
 width="100.000000pt" height="90.000000pt" viewBox="0 0 100.000000 90.000000"
 preserveAspectRatio="xMidYMid meet">

<g transform="translate(0.000000,90.000000) scale(0.100000,-0.100000)"
fill="#000000" stroke="#2563EB">
<path d="M251 867 c-6 -6 -11 -15 -11 -19 0 -5 50 -79 110 -166 l111 -157
-208 -3 c-114 -1 -211 -6 -215 -10 -10 -10 169 -493 186 -504 14 -10 538 -10
552 0 17 11 196 494 186 504 -4 4 -101 9 -215 10 l-208 3 111 157 c60 87 110
161 110 166 0 5 -6 15 -14 21 -20 17 -32 3 -145 -162 -52 -75 -97 -137 -101
-137 -4 0 -54 67 -111 150 -56 82 -108 151 -115 154 -6 2 -17 -1 -23 -7z m647
-405 c-2 -5 -37 -100 -78 -210 l-75 -202 -245 0 -245 0 -43 118 c-24 64 -59
159 -78 210 l-34 92 401 0 c220 0 399 -4 397 -8z"/>
<path d="M365 368 c-3 -8 -4 -59 -3 -114 3 -91 5 -99 23 -99 19 0 20 7 20 110
0 97 -2 110 -18 113 -9 2 -19 -3 -22 -10z"/>
<path d="M595 368 c-3 -8 -4 -59 -3 -114 3 -91 5 -99 23 -99 19 0 20 7 20 110
0 97 -2 110 -18 113 -9 2 -19 -3 -22 -10z"/>
</g>
</svg>
